Normalized EMG Linear Envelopes
nRows=266
nColumns=4

endheader
time	 med_gas_r	  soleus_r	 tib_ant_r	
3.19355	  0.007112	  0.031634	  0.005555	
3.22681	  0.006852	  0.023702	  0.005499	
3.26008	  0.006628	  0.016731	  0.005448	
3.29335	  0.006463	  0.011293	  0.005407	
3.32661	  0.006362	  0.007459	  0.005380	
3.35988	  0.006319	  0.004993	  0.005372	
3.39315	  0.006315	  0.003580	  0.005382	
3.42641	  0.006328	  0.002947	  0.005406	
3.45968	  0.006339	  0.002864	  0.005432	
3.49294	  0.006337	  0.003128	  0.005451	
3.52621	  0.006326	  0.003567	  0.005457	
3.55948	  0.006312	  0.004056	  0.005452	
3.59274	  0.006309	  0.004521	  0.005443	
3.62601	  0.006331	  0.004924	  0.005437	
3.65927	  0.006396	  0.005252	  0.005441	
3.69254	  0.006520	  0.005506	  0.005453	
3.72581	  0.006718	  0.005696	  0.005466	
3.75907	  0.006993	  0.005840	  0.005476	
3.79234	  0.007331	  0.005952	  0.005481	
3.8256	  0.007695	  0.006038	  0.005488	
3.85887	  0.008035	  0.006092	  0.005502	
3.89214	  0.008299	  0.006104	  0.005524	
3.9254	  0.008453	  0.006062	  0.005551	
3.95867	  0.008482	  0.005963	  0.005574	
3.99194	  0.008398	  0.005820	  0.005589	
4.0252	  0.008229	  0.005654	  0.005593	
4.05847	  0.008013	  0.005497	  0.005593	
4.09173	  0.007794	  0.005380	  0.005603	
4.125	  0.007604	  0.005331	  0.005640	
4.15827	  0.007461	  0.005365	  0.005716	
4.19153	  0.007379	  0.005483	  0.005833	
4.2248	  0.007383	  0.005665	  0.005985	
4.25806	  0.007499	  0.005869	  0.006154	
4.29133	  0.007739	  0.006038	  0.006318	
4.3246	  0.008078	  0.006119	  0.006453	
4.35786	  0.008451	  0.006091	  0.006542	
4.39113	  0.008771	  0.005971	  0.006586	
4.4244	  0.008955	  0.005809	  0.006610	
4.45766	  0.008947	  0.005649	  0.006650	
4.49093	  0.008738	  0.005521	  0.006746	
4.52419	  0.008379	  0.005427	  0.006923	
4.55746	  0.007959	  0.005361	  0.007181	
4.59073	  0.007573	  0.005315	  0.007480	
4.62399	  0.007284	  0.005287	  0.007740	
4.65726	  0.007114	  0.005275	  0.007870	
4.69052	  0.007055	  0.005280	  0.007814	
4.72379	  0.007091	  0.005303	  0.007584	
4.75706	  0.007207	  0.005348	  0.007253	
4.79032	  0.007378	  0.005423	  0.006911	
4.82359	  0.007553	  0.005548	  0.006624	
4.85685	  0.007664	  0.005751	  0.006418	
4.89012	  0.007648	  0.006050	  0.006286	
4.92339	  0.007478	  0.006438	  0.006210	
4.95665	  0.007182	  0.006876	  0.006170	
4.98992	  0.006836	  0.007332	  0.006151	
5.02319	  0.006532	  0.007831	  0.006143	
5.05645	  0.006341	  0.008487	  0.006141	
5.08972	  0.006295	  0.009498	  0.006140	
5.12298	  0.006397	  0.011098	  0.006138	
5.15625	  0.006629	  0.013468	  0.006132	
5.18952	  0.006967	  0.016574	  0.006121	
5.22278	  0.007368	  0.020007	  0.006106	
5.25605	  0.007762	  0.022969	  0.006093	
5.28931	  0.008076	  0.024543	  0.006087	
5.32258	  0.008261	  0.024151	  0.006093	
5.35585	  0.008316	  0.021889	  0.006110	
5.38911	  0.008281	  0.018446	  0.006137	
5.42238	  0.008202	  0.014703	  0.006169	
5.45565	  0.008108	  0.011325	  0.006202	
5.48891	  0.008004	  0.008616	  0.006231	
5.52218	  0.007888	  0.006616	  0.006253	
5.55544	  0.007763	  0.005257	  0.006266	
5.58871	  0.007643	  0.004446	  0.006272	
5.62198	  0.007543	  0.004077	  0.006280	
5.65524	  0.007471	  0.004028	  0.006305	
5.68851	  0.007437	  0.004180	  0.006356	
5.72177	  0.007449	  0.004444	  0.006441	
5.75504	  0.007510	  0.004775	  0.006550	
5.78831	  0.007609	  0.005154	  0.006656	
5.82157	  0.007712	  0.005564	  0.006703	
5.85484	  0.007775	  0.005969	  0.006607	
5.8881	  0.007764	  0.006308	  0.006272	
5.92137	  0.007666	  0.006504	  0.005605	
5.95464	  0.007483	  0.006491	  0.004538	
5.9879	  0.007220	  0.006240	  0.003038	
6.02117	  0.006881	  0.005772	  0.001114	
6.05444	  0.006482	  0.005152	 -0.001136	
6.0877	  0.006064	  0.004478	 -0.003455	
6.12097	  0.005709	  0.003878	 -0.005332	
6.15423	  0.005528	  0.003521	 -0.005949	
6.1875	  0.005648	  0.003628	 -0.004174	
6.22077	  0.006184	  0.004487	  0.001421	
6.25403	  0.007240	  0.006468	  0.012555	
6.2873	  0.008910	  0.010000	  0.031121	
6.32056	  0.011268	  0.015478	  0.058746	
6.35383	  0.014319	  0.023065	  0.095937	
6.3871	  0.017920	  0.032484	  0.141159	
6.42036	  0.021742	  0.042966	  0.190621	
6.45363	  0.025342	  0.053443	  0.239262	
6.4869	  0.028309	  0.062888	  0.282562	
6.52016	  0.030378	  0.070593	  0.317970	
6.55343	  0.031448	  0.076220	  0.344951	
6.58669	  0.031534	  0.079686	  0.363847	
6.61996	  0.030738	  0.081038	  0.374804	
6.65323	  0.029272	  0.080412	  0.377795	
6.68649	  0.027472	  0.078061	  0.373530	
6.71976	  0.025721	  0.074367	  0.364113	
6.75302	  0.024332	  0.069823	  0.352758	
6.78629	  0.023466	  0.064997	  0.342766	
6.81956	  0.023148	  0.060484	  0.336469	
6.85282	  0.023311	  0.056831	  0.334628	
6.88609	  0.023834	  0.054436	  0.336461	
6.91935	  0.024554	  0.053462	  0.340329	
6.95262	  0.025317	  0.053859	  0.344778	
6.98589	  0.026054	  0.055491	  0.349348	
7.01915	  0.026805	  0.058261	  0.354615	
7.05242	  0.027665	  0.062129	  0.361566	
7.08569	  0.028684	  0.067006	  0.370891	
7.11895	  0.029801	  0.072633	  0.382624	
7.15222	  0.030869	  0.078553	  0.396092	
7.18548	  0.031719	  0.084182	  0.409984	
7.21875	  0.032229	  0.088935	  0.422598	
7.25202	  0.032353	  0.092344	  0.432354	
7.28528	  0.032133	  0.094158	  0.438394	
7.31855	  0.031699	  0.094436	  0.440854	
7.35181	  0.031254	  0.093618	  0.440671	
7.38508	  0.031034	  0.092488	  0.439282	
7.41835	  0.031228	  0.092011	  0.438563	
7.45161	  0.031932	  0.093066	  0.440870	
7.48488	  0.033137	  0.096227	  0.448605	
7.51815	  0.034787	  0.101645	  0.463202	
7.55141	  0.036806	  0.109011	  0.484242	
7.58468	  0.039074	  0.117559	  0.509518	
7.61794	  0.041358	  0.126144	  0.535954	
7.65121	  0.043297	  0.133461	  0.560484	
7.68448	  0.044513	  0.138389	  0.580327	
7.71774	  0.044785	  0.140319	  0.593015	
7.75101	  0.044160	  0.139284	  0.596804	
7.78427	  0.042911	  0.135830	  0.591416	
7.81754	  0.041396	  0.130741	  0.578380	
7.85081	  0.039909	  0.124799	  0.560525	
7.88407	  0.038628	  0.118643	  0.541003	
7.91734	  0.037628	  0.112739	  0.522516	
7.9506	  0.036916	  0.107407	  0.507095	
7.98387	  0.036452	  0.102927	  0.496221	
8.01714	  0.036182	  0.099632	  0.490952	
8.0504	  0.036070	  0.097898	  0.491836	
8.08367	  0.036144	  0.097975	  0.498657	
8.11694	  0.036480	  0.099773	  0.510248	
8.1502	  0.037141	  0.102787	  0.524621	
8.18347	  0.038088	  0.106218	  0.539473	
8.21673	  0.039151	  0.109256	  0.552861	
8.25	  0.040100	  0.111392	  0.563752	
8.28327	  0.040771	  0.112602	  0.572265	
8.31653	  0.041143	  0.113280	  0.579538	
8.3498	  0.041318	  0.113923	  0.587218	
8.38306	  0.041425	  0.114775	  0.596648	
8.41633	  0.041548	  0.115707	  0.608127	
8.4496	  0.041706	  0.116438	  0.620815	
8.48286	  0.041868	  0.116866	  0.633462	
8.51613	  0.041975	  0.117217	  0.645281	
8.5494	  0.041947	  0.117912	  0.656114	
8.58266	  0.041715	  0.119311	  0.665813	
8.61593	  0.041281	  0.121567	  0.673722	
8.64919	  0.040757	  0.124654	  0.678934	
8.68246	  0.040352	  0.128452	  0.680997	
8.71573	  0.040283	  0.132744	  0.680210	
8.74899	  0.040683	  0.137119	  0.677245	
8.78226	  0.041552	  0.140944	  0.672628	
8.81552	  0.042762	  0.143528	  0.666763	
8.84879	  0.044105	  0.144454	  0.660335	
8.88206	  0.045355	  0.143836	  0.654362	
8.91532	  0.046333	  0.142266	  0.649516	
8.94859	  0.046944	  0.140500	  0.645377	
8.98185	  0.047185	  0.139107	  0.640562	
9.01512	  0.047109	  0.138301	  0.633796	
9.04839	  0.046809	  0.137981	  0.624930	
9.08165	  0.046412	  0.137875	  0.614974	
9.11492	  0.046065	  0.137683	  0.605265	
9.14819	  0.045880	  0.137137	  0.596629	
9.18145	  0.045856	  0.136024	  0.589217	
9.21472	  0.045867	  0.134216	  0.582870	
9.24798	  0.045728	  0.131756	  0.577448	
9.28125	  0.045320	  0.128932	  0.572826	
9.31452	  0.044663	  0.126250	  0.568749	
9.34778	  0.043903	  0.124249	  0.564846	
9.38105	  0.043236	  0.123263	  0.560830	
9.41431	  0.042822	  0.123264	  0.556657	
9.44758	  0.042731	  0.123870	  0.552439	
9.48085	  0.042907	  0.124479	  0.548198	
9.51411	  0.043194	  0.124512	  0.543754	
9.54738	  0.043421	  0.123668	  0.538868	
9.58065	  0.043491	  0.122054	  0.533398	
9.61391	  0.043409	  0.120059	  0.527188	
9.64718	  0.043216	  0.118016	  0.519864	
9.68044	  0.042912	  0.115945	  0.510996	
9.71371	  0.042434	  0.113591	  0.500664	
9.74698	  0.041693	  0.110714	  0.489811	
9.78024	  0.040632	  0.107347	  0.479869	
9.81351	  0.039265	  0.103815	  0.471952	
9.84677	  0.037691	  0.100518	  0.466432	
9.88004	  0.036085	  0.097670	  0.463292	
9.91331	  0.034631	  0.095185	  0.462763	
9.94657	  0.033463	  0.092783	  0.465508	
9.97984	  0.032629	  0.090227	  0.472133	
10.0131	  0.032119	  0.087514	  0.482489	
10.0464	  0.031909	  0.084877	  0.495365	
10.0796	  0.031991	  0.082626	  0.508727	
10.1129	  0.032348	  0.081010	  0.520285	
10.1462	  0.032918	  0.080172	  0.528158	
10.1794	  0.033594	  0.080190	  0.531391	
10.2127	  0.034268	  0.081091	  0.530130	
10.246	  0.034872	  0.082814	  0.525301	
10.2792	  0.035386	  0.085155	  0.518048	
10.3125	  0.035799	  0.087756	  0.509370	
10.3458	  0.036098	  0.090166	  0.500216	
10.379	  0.036289	  0.091956	  0.491738	
10.4123	  0.036408	  0.092847	  0.485233	
10.4456	  0.036495	  0.092782	  0.481575	
10.4788	  0.036547	  0.091907	  0.480563	
10.5121	  0.036498	  0.090499	  0.480753	
10.5454	  0.036241	  0.088898	  0.480080	
10.5786	  0.035689	  0.087450	  0.477032	
10.6119	  0.034812	  0.086437	  0.471725	
10.6452	  0.033649	  0.085980	  0.466103	
10.6784	  0.032302	  0.085993	  0.462944	
10.7117	  0.030920	  0.086267	  0.464192	
10.745	  0.029691	  0.086624	  0.469686	
10.7782	  0.028817	  0.086998	  0.477085	
10.8115	  0.028453	  0.087394	  0.482942	
10.8448	  0.028645	  0.087811	  0.484242	
10.878	  0.029297	  0.088218	  0.479603	
10.9113	  0.030203	  0.088575	  0.469681	
10.9446	  0.031138	  0.088862	  0.456737	
10.9778	  0.031960	  0.089080	  0.443691	
11.0111	  0.032649	  0.089276	  0.433141	
11.0444	  0.033277	  0.089563	  0.426722	
11.0776	  0.033927	  0.090093	  0.424954	
11.1109	  0.034616	  0.090948	  0.427465	
11.1442	  0.035275	  0.092032	  0.433334	
11.1774	  0.035776	  0.093061	  0.441289	
11.2107	  0.035997	  0.093712	  0.449736	
11.244	  0.035869	  0.093796	  0.456762	
11.2772	  0.035394	  0.093303	  0.460155	
11.3105	  0.034598	  0.092265	  0.457440	
11.3437	  0.033477	  0.090619	  0.446040	
11.377	  0.031986	  0.088288	  0.423862	
11.4103	  0.030107	  0.085465	  0.390243	
11.4435	  0.027932	  0.082833	  0.346671	
11.4768	  0.025710	  0.081431	  0.296618	
11.5101	  0.023781	  0.082235	  0.244471	
11.5433	  0.022463	  0.085783	  0.194251	
11.5766	  0.021936	  0.092055	  0.148821	
11.6099	  0.022190	  0.100544	  0.109765	
11.6431	  0.023016	  0.110382	  0.077664	
11.6764	  0.024059	  0.120509	  0.052430	
11.7097	  0.024934	  0.129931	  0.033561	
11.7429	  0.025360	  0.137858	  0.020294	
11.7762	  0.025229	  0.143476	  0.011688	
11.8095	  0.024549	  0.145549	  0.006709	
11.8427	  0.023343	  0.142418	  0.004334	
11.876	  0.021605	  0.132673	  0.003669	
11.9093	  0.019345	  0.115999	  0.004028	
11.9425	  0.016654	  0.093494	  0.004931	
11.9758	  0.013710	  0.067255	  0.006047	
12.0091	  0.010732	  0.039709	  0.007142	
